<?xml version="1.0" encoding="UTF-8"?>
<svg id="Layer_1" data-name="Layer 1" xmlns="http://www.w3.org/2000/svg" width="102.75" height="29.6" viewBox="0 0 102.75 29.6">
  <g>
    <path d="M18.21,19.7c0-1.22-1.1-3.39-1.36-8.83-.15-3.12,1.45-9.49-.07-10.47-2.64-1.22-3.34.57-3.37,2.02-.04,1.62-.2,6.12-.49,6.46-.16.18-4.85.23-5.31.01-.3-.14-.2-1.15-.22-1.81s.07-2.58.75-3.63c.2-.37.57-1.01,1.18-1.06.7-.05,1.12-.47,1.21-.92.1-.51-.23-1.04-1.08-1.1C3.94.02,3.48,5.98,3.48,7.98c.1,2.1-4.34.43-3.34,2.75.34.77,1.37.8,1.9.8.24,0,.79,0,1.06.16.53.33.48,1.33.43,2.32-.25,4.34.05,8.7.45,13.04.17.89-.08,2.27,1.72,2.51,1.14.15,2.44-.46,2.69-1.23.23-1.34-.79-6.76-.79-10.22,0-1.49-.33-6.29,0-6.59.24-.22,1.29-.34,2.39-.33,1.32.01,2.8-.12,2.84.33.08,1.15.06,2.82.32,4.13.26,1.32.29,2.13,1,3.9.48,1.2,3.67,1.73,4.05.17v-.03s0,0,0,0Z" fill="#1939f4"/>
    <path d="M34.78,11.24c-.94-1.56-3.38-2.64-5.86-3.17-4.66-1.05-7.9,1.01-9.33,3.58-1.33,2.32-1.5,5.19,1.28,7.06,1.52,1.06,3.86,1.76,6.14,1.55,5.4-.51,9.85-5.86,7.79-8.99l-.02-.03h0ZM30.45,12.24c.48,1.79-.94,4.43-3.69,5.28-1.82.55-3.37-.34-3.67-1.47-.53-1.89.4-4.45,2.85-5.36,1.98-.72,4.15.16,4.5,1.52,0,0,.01.03.01.03Z" fill="#1939f4"/>
    <path d="M66.68,16.92c-1.87-3.11-5.45-5.58-3.35-8.95.26-.58.47-1.36-.4-1.7-.89-.33-2.15-.07-2.98.31-1.33.61-2.02,1.93-2.62,2.86-1.06,1.7-2.07,3.42-3.39,5.05-.91,1.16-2.16,1.67-2.9.05-.48-1-.54-2.13-1.05-3.11-.49-1.09-2.24-1.74-3.76-.93-1.34.72-1.93,1.82-2.75,2.79-.3.33-.63.82-1.19.97-.95.11-1.04-1.46-1.18-1.9-.26-1.02-.28-2.92-1.18-3.76-.9-.86-2.7-.19-3.22.78-.3.51-.3,1.26-.26,1.8.15,1.54.52,2.76.84,4.28.33,1.29.18,2.83,1.68,3.82,2.83,1.5,4.79-1.37,5.85-2.64.47-.52.83-.9,1.42-.92,1.2.11,1.66,1.79,2.25,2.43,1.06,1.61,3.67,2.48,5.84,1.06,1.69-1.18,2.25-2.89,3.42-4.31.56-.72,1.23-1.02,2.06-.23.66.62,1.18,1.37,1.68,2.07.95,1.48,2.34,3.29.68,4.53-.57.39-1.53.61-2.09.99-.76.49-.18,1.11.71,1.38,2.32.69,4.97-.49,5.95-1.81,1.17-1.5.85-3.34-.05-4.88l-.02-.03h0Z" fill="#1939f4"/>
  </g>
  <g>
    <path d="M86.59,7.25c-.25,0-.48.08-.61.21l-5.03,4.92h-.12l-5.03-4.92c-.13-.13-.36-.21-.61-.21h-.3c-.58,0-.92.4-.61.7l5.2,4.96c.16.15.16.35,0,.5l-5.2,4.96c-.32.3.03.7.61.7h.3c.25,0,.48-.08.61-.21l5.03-4.87h.12l5.03,4.87c.13.13.36.21.61.21h.31c.58,0,.92-.4.61-.7l-5.13-4.97c-.15-.15-.15-.34,0-.49l5.13-4.97c.31-.3-.04-.7-.61-.7h-.31,0Z" fill="#13132d"/>
    <path d="M102.66,18.4l-3.4-3.89c-.2-.23-.05-.51.32-.62.04-.01.09-.03.14-.04.9-.3,1.58-.71,2.04-1.24.46-.53.69-1.14.69-1.82s-.23-1.3-.69-1.83-1.14-.95-2.05-1.25-2.03-.45-3.37-.45h-5.39c-.4,0-.73.2-.73.45v10.92c0,.25.33.45.73.45h.27c.4,0,.73-.2.73-.45v-3.87c0-.25.33-.45.73-.45h3.69c.09,0,.18,0,.27,0,.28,0,.54.09.67.24l3.73,4.31c.13.15.37.24.64.24h.34c.55,0,.9-.37.64-.67h0ZM96.32,13.31h-3.64c-.4,0-.73-.2-.73-.45v-4.18c0-.25.33-.45.73-.45h3.62c1,0,1.83.11,2.49.32.66.21,1.15.51,1.48.9.33.39.49.84.49,1.35s-.16.96-.49,1.34c-.33.38-.81.67-1.47.87-.66.2-1.48.31-2.47.31h0Z" fill="#13132d"/>
  </g>
</svg>